<svg xmlns="http://www.w3.org/2000/svg" xmlns:xlink="http://www.w3.org/1999/xlink" height="14.411764705882355" width="16">
  <defs>
    <rect id="rect-1" opacity="1" x="0" y="0" width="16" height="14.411764705882353"/>
    <mask id="mask-2" maskUnits="userSpaceOnUse" maskContentUnits="userSpaceOnUse">
      <rect opacity="1" x="0" y="0" width="16" height="14.411764705882355" fill="Black"/>
      <use xlink:href="#rect-1" fill="White"/>
    </mask>
  </defs>
  <g opacity="1">
    <g/>
    <g mask="url(#mask-2)">
      <g opacity="1">
        <g opacity="1">
          <path fill="rgb(0,204,188)" fill-opacity="1" opacity="1" fill-rule="evenodd" d="M15.6666259765625 5.404412550084729L13.6416015625 5.404412550084729L10.0634765625 1.138783735387463C9.8250732421875 0.8545163098503537 9.4044189453125 0.8199513379265255 9.123779296875 1.0615723553825802C8.84326171875 1.3031952801872677 8.80908203125 1.729552549474377 9.047607421875 2.0138199750114865L11.8917236328125 5.404412550084729L4.1082763671875 5.404412550084729L6.952392578125 2.0137913647819943C7.19091796875 1.729523939244885 7.15673828125 1.3031666699577755 6.876220703125 1.0615456525017208C6.595703125 0.8199227276970333 6.1749267578125 0.8545163098503537 5.9365234375 1.1387551251579708L2.3583984375 5.404412550084729L0.3333740234375 5.404412550084729C0.1492919921875 5.404412550084729 0 5.55565194522633 0 5.742186826818127L0 6.41773919498219C0 6.604275983922619 0.1492919921875 6.755515379064221 0.3333740234375 6.755515379064221L0.851806640625 6.755515379064221L1.6180419921875 12.345790189855236C1.7095947265625 13.013766569249768 2.273193359375 13.511027616613049 2.938720703125 13.511027616613049L13.061279296875 13.511027616613049C13.726806640625 13.511027616613049 14.2904052734375 13.013766569249768 14.3819580078125 12.345790189855236L15.148193359375 6.755515379064221L15.6666259765625 6.755515379064221C15.8507080078125 6.755515379064221 16 6.604275983922619 16 6.41773919498219L16 5.742186826818127C16 5.55565194522633 15.8507080078125 5.404412550084729 15.6666259765625 5.404412550084729ZM13.802001953125 6.755515379064221L13.061279296875 12.15992669498219L2.938720703125 12.15992669498219L2.197998046875 6.755515379064221L13.802001953125 6.755515379064221ZM5.5555419921875 10.58364037906422L5.5555419921875 8.33180169498219C5.5555419921875 7.958699506871838 5.257080078125 7.656249326818127 4.8887939453125 7.656249326818127C4.5206298828125 7.656249326818127 4.22216796875 7.958699506871838 4.22216796875 8.33180169498219L4.22216796875 10.58364037906422C4.22216796875 10.95674065982594 4.5206298828125 11.259188932531018 4.8887939453125 11.259188932531018C5.257080078125 11.259188932531018 5.5555419921875 10.95674065982594 5.5555419921875 10.58364037906422ZM8.666748046875 10.58364037906422L8.666748046875 8.33180169498219C8.666748046875 7.958699506871838 8.3682861328125 7.656249326818127 8 7.656249326818127C7.6318359375 7.656249326818127 7.3333740234375 7.958699506871838 7.3333740234375 8.33180169498219L7.3333740234375 10.58364037906422C7.3333740234375 10.95674065982594 7.6318359375 11.259188932531018 8 11.259188932531018C8.3682861328125 11.259188932531018 8.666748046875 10.95674065982594 8.666748046875 10.58364037906422ZM11.77783203125 8.33180169498219L11.77783203125 10.58364037906422C11.77783203125 10.95674065982594 11.4793701171875 11.259188932531018 11.111083984375 11.259188932531018C10.742919921875 11.259188932531018 10.4444580078125 10.95674065982594 10.4444580078125 10.58364037906422L10.4444580078125 8.33180169498219C10.4444580078125 7.958699506871838 10.742919921875 7.656249326818127 11.111083984375 7.656249326818127C11.4793701171875 7.656249326818127 11.77783203125 7.958699506871838 11.77783203125 8.33180169498219Z"/>
        </g>
      </g>
    </g>
  </g>
</svg>