<svg xmlns="http://www.w3.org/2000/svg" xmlns:xlink="http://www.w3.org/1999/xlink" height="14.000000000000057" width="11.99999999999909">
  <defs>
    <rect id="rect-1" opacity="1" x="0" y="0" width="11.99999999999909" height="14.000000000000057"/>
    <mask id="mask-2" maskUnits="userSpaceOnUse" maskContentUnits="userSpaceOnUse">
      <rect opacity="1" x="0" y="0" width="11.99999999999909" height="14.000000000000057" fill="Black"/>
      <use xlink:href="#rect-1" fill="White"/>
    </mask>
  </defs>
  <g opacity="1">
    <g/>
    <g mask="url(#mask-2)">
      <g opacity="1">
        <g opacity="1">
          <path fill="rgb(255,255,255)" fill-opacity="1" opacity="1" fill-rule="evenodd" d="M11.5714111328125 2.1875L9.364013671875 2.1875L8.4532470703125 0.637115478515625C8.2208251953125 0.2416534423828125 7.802001953125 -0.000213623046875 7.3502197265625 0L4.6497802734375 0C4.1981201171875 -0.0000152587890625 3.7796630859375 0.2418212890625 3.5472412109375 0.637115478515625L2.635986328125 2.1875L0.4285888671875 2.1875C0.19189453125 2.1875 0 2.3833770751953125 0 2.625L0 3.0625C0 3.30413818359375 0.19189453125 3.5 0.4285888671875 3.5L0.857177734375 3.5L0.857177734375 12.6875C0.857177734375 13.412384033203125 1.4327392578125 14 2.142822265625 14L9.857177734375 14C10.5672607421875 14 11.142822265625 13.412384033203125 11.142822265625 12.6875L11.142822265625 3.5L11.5714111328125 3.5C11.80810546875 3.5 12 3.30413818359375 12 3.0625L12 2.625C12 2.3833770751953125 11.80810546875 2.1875 11.5714111328125 2.1875ZM4.7410888671875 1.3125C4.6845703125 1.3123321533203125 4.632080078125 1.342559814453125 4.6029052734375 1.392059326171875L4.135498046875 2.1875L7.8646240234375 2.1875L7.39697265625 1.392059326171875C7.3677978515625 1.3426361083984375 7.3154296875 1.3124237060546875 7.259033203125 1.3125L4.7410888671875 1.3125ZM9.8570556640625 12.6875L2.142822265625 12.6875L2.142822265625 3.5L9.8570556640625 3.5L9.8570556640625 12.6875ZM4.8214111328125 11.375L4.1785888671875 11.375C4.0010986328125 11.375 3.857177734375 11.22808837890625 3.857177734375 11.046875L3.857177734375 5.140625C3.857177734375 4.95941162109375 4.0010986328125 4.8125 4.1785888671875 4.8125L4.8214111328125 4.8125C4.9990234375 4.8125 5.1429443359375 4.95941162109375 5.1429443359375 5.140625L5.1429443359375 11.046875C5.1429443359375 11.22808837890625 4.9990234375 11.375 4.8214111328125 11.375ZM7.1785888671875 11.375L7.8214111328125 11.375C7.9990234375 11.375 8.1429443359375 11.22808837890625 8.1429443359375 11.046875L8.1429443359375 5.140625C8.1429443359375 4.95941162109375 7.9990234375 4.8125 7.8214111328125 4.8125L7.1785888671875 4.8125C7.0010986328125 4.8125 6.857177734375 4.95941162109375 6.857177734375 5.140625L6.857177734375 11.046875C6.857177734375 11.22808837890625 7.0010986328125 11.375 7.1785888671875 11.375Z"/>
        </g>
      </g>
    </g>
  </g>
</svg>