<?xml version="1.0" encoding="UTF-8"?>
<svg width="355px" height="75px" viewBox="0 0 355 75" version="1.1" xmlns="http://www.w3.org/2000/svg" xmlns:xlink="http://www.w3.org/1999/xlink">
    <!-- Generator: Sketch 60.1 (88133) - https://sketch.com -->
    <title>Logo</title>
    <desc>Created with Sketch.</desc>
    <defs>
        <rect id="path-1" x="0" y="0" width="355" height="75"></rect>
        <rect id="path-3" x="0" y="0" width="75.0961538" height="75"></rect>
        <path d="M13.75,55.44 C16.4266667,55.44 18.535,54.4316667 20.075,52.415 C20.1483333,52.3416667 20.2216667,52.3141667 20.295,52.3325 C20.3683333,52.3508333 20.405,52.415 20.405,52.525 L20.405,52.525 L20.405,54.34 C20.405,54.5233333 20.4691667,54.6791667 20.5975,54.8075 C20.7258333,54.9358333 20.8816667,55 21.065,55 L21.065,55 L27.5,55 C27.6833333,55 27.8391667,54.9358333 27.9675,54.8075 C28.0958333,54.6791667 28.16,54.5233333 28.16,54.34 L28.16,54.34 L28.16,17.16 C28.16,16.9766667 28.0958333,16.8208333 27.9675,16.6925 C27.8391667,16.5641667 27.6833333,16.5 27.5,16.5 L27.5,16.5 L21.065,16.5 C20.8816667,16.5 20.7258333,16.5641667 20.5975,16.6925 C20.4691667,16.8208333 20.405,16.9766667 20.405,17.16 L20.405,17.16 L20.405,28.93 C20.405,29.04 20.3683333,29.1133333 20.295,29.15 C20.2216667,29.1866667 20.1483333,29.15 20.075,29.04 C18.6083333,27.2066667 16.555,26.29 13.915,26.29 C11.2383333,26.29 8.9925,26.9775 7.1775,28.3525 C5.3625,29.7275 4.03333333,31.5883333 3.19,33.935 C2.53,35.8783333 2.2,38.1516667 2.2,40.755 C2.2,43.285 2.51166667,45.5033333 3.135,47.41 C3.94166667,49.9033333 5.27083333,51.865 7.1225,53.295 C8.97416667,54.725 11.1833333,55.44 13.75,55.44 Z M15.4,48.785 C13.6033333,48.785 12.2466667,47.9966667 11.33,46.42 C10.56,44.9533333 10.175,43.12 10.175,40.92 C10.175,38.4633333 10.6333333,36.52 11.55,35.09 C12.43,33.66 13.7316667,32.945 15.455,32.945 C17.0683333,32.945 18.2966667,33.66 19.14,35.09 C19.9466667,36.4833333 20.35,38.4083333 20.35,40.865 C20.35,43.2116667 19.9833333,45.0633333 19.25,46.42 C18.3333333,47.9966667 17.05,48.785 15.4,48.785 Z M47.245,55.44 C49.5183333,55.44 51.6083333,55.0275 53.515,54.2025 C55.4216667,53.3775 56.98,52.2133333 58.19,50.71 C58.3366667,50.49 58.41,50.3433333 58.41,50.27 C58.41,50.1233333 58.3183333,49.9583333 58.135,49.775 L58.135,49.775 L54.175,45.87 C54.0283333,45.7233333 53.9,45.65 53.79,45.65 C53.6066667,45.65 53.4416667,45.76 53.295,45.98 C51.9383333,47.85 50.0866667,48.8033333 47.74,48.84 C44.8066667,48.84 42.8633333,47.8133333 41.91,45.76 C41.6166667,45.0266667 41.415,44.2933333 41.305,43.56 C41.2316667,43.3766667 41.305,43.285 41.525,43.285 L41.525,43.285 L58.52,43.285 C58.96,43.285 59.1983333,43.065 59.235,42.625 C59.3083333,40.9016667 59.235,39.3433333 59.015,37.95 C58.5383333,34.3933333 57.1908333,31.5516667 54.9725,29.425 C52.7541667,27.2983333 49.8116667,26.235 46.145,26.235 C43.2483333,26.235 40.7458333,27.005 38.6375,28.545 C36.5291667,30.085 35.0533333,32.1566667 34.21,34.76 C33.66,36.3 33.385,38.0783333 33.385,40.095 C33.385,43.065 33.77,45.4666667 34.54,47.3 C35.4933333,49.8666667 37.0608333,51.865 39.2425,53.295 C41.4241667,54.725 44.0916667,55.44 47.245,55.44 Z M51.04,38.225 L41.525,38.225 C41.3416667,38.225 41.25,38.1333333 41.25,37.95 C41.36,37.2533333 41.4883333,36.6666667 41.635,36.19 C42.3683333,34.0266667 43.89,32.945 46.2,32.945 C47.41,32.945 48.4275,33.2475 49.2525,33.8525 C50.0775,34.4575 50.655,35.31 50.985,36.41 C50.985,36.3733333 51.0766667,36.8866667 51.26,37.95 C51.3333333,38.1333333 51.26,38.225 51.04,38.225 L51.04,38.225 Z M78.54,55.44 C81.07,55.44 83.2608333,54.725 85.1125,53.295 C86.9641667,51.865 88.3116667,49.9033333 89.155,47.41 C89.7783333,45.5033333 90.09,43.285 90.09,40.755 C90.09,38.115 89.7416667,35.8416667 89.045,33.935 C88.2016667,31.5883333 86.8725,29.7275 85.0575,28.3525 C83.2425,26.9775 80.9966667,26.29 78.32,26.29 C75.68,26.29 73.645,27.2066667 72.215,29.04 C72.1416667,29.15 72.0683333,29.1866667 71.995,29.15 C71.9216667,29.1133333 71.885,29.04 71.885,28.93 L71.885,28.93 L71.885,17.16 C71.885,16.9766667 71.8208333,16.8208333 71.6925,16.6925 C71.5641667,16.5641667 71.4083333,16.5 71.225,16.5 L71.225,16.5 L64.79,16.5 C64.6066667,16.5 64.4508333,16.5641667 64.3225,16.6925 C64.1941667,16.8208333 64.13,16.9766667 64.13,17.16 L64.13,17.16 L64.13,54.34 C64.13,54.5233333 64.1941667,54.6791667 64.3225,54.8075 C64.4508333,54.9358333 64.6066667,55 64.79,55 L64.79,55 L71.225,55 C71.4083333,55 71.5641667,54.9358333 71.6925,54.8075 C71.8208333,54.6791667 71.885,54.5233333 71.885,54.34 L71.885,54.34 L71.885,52.525 C71.885,52.415 71.9216667,52.3508333 71.995,52.3325 C72.0683333,52.3141667 72.1416667,52.3416667 72.215,52.415 C73.755,54.4316667 75.8633333,55.44 78.54,55.44 Z M76.89,48.785 C75.2033333,48.785 73.92,47.9966667 73.04,46.42 C72.3066667,45.1733333 71.94,43.3216667 71.94,40.865 C71.94,38.4083333 72.3433333,36.4833333 73.15,35.09 C73.9933333,33.66 75.2216667,32.945 76.835,32.945 C78.5583333,32.945 79.86,33.66 80.74,35.09 C81.62,36.4466667 82.06,38.39 82.06,40.92 C82.06,43.1933333 81.675,45.0266667 80.905,46.42 C80.025,47.9966667 78.6866667,48.785 76.89,48.785 Z M104.5,55.385 C107.58,55.385 109.853333,54.395 111.32,52.415 C111.393333,52.305 111.466667,52.2591667 111.54,52.2775 C111.613333,52.2958333 111.65,52.36 111.65,52.47 L111.65,52.47 L111.65,54.34 C111.65,54.5233333 111.714167,54.6791667 111.8425,54.8075 C111.970833,54.9358333 112.126667,55 112.31,55 L112.31,55 L118.745,55 C118.928333,55 119.084167,54.9358333 119.2125,54.8075 C119.340833,54.6791667 119.405,54.5233333 119.405,54.34 L119.405,54.34 L119.405,27.39 C119.405,27.2066667 119.340833,27.0508333 119.2125,26.9225 C119.084167,26.7941667 118.928333,26.73 118.745,26.73 L118.745,26.73 L112.31,26.73 C112.126667,26.73 111.970833,26.7941667 111.8425,26.9225 C111.714167,27.0508333 111.65,27.2066667 111.65,27.39 L111.65,27.39 L111.65,44.715 C111.466667,45.925 110.971667,46.9058333 110.165,47.6575 C109.358333,48.4091667 108.331667,48.785 107.085,48.785 C105.691667,48.785 104.600833,48.3266667 103.8125,47.41 C103.024167,46.4933333 102.63,45.3016667 102.63,43.835 L102.63,43.835 L102.63,27.39 C102.63,27.2066667 102.565833,27.0508333 102.4375,26.9225 C102.309167,26.7941667 102.153333,26.73 101.97,26.73 L101.97,26.73 L95.59,26.73 C95.4066667,26.73 95.2508333,26.7941667 95.1225,26.9225 C94.9941667,27.0508333 94.93,27.2066667 94.93,27.39 L94.93,27.39 L94.93,45.76 C94.93,48.8033333 95.8283333,51.1683333 97.625,52.855 C99.4216667,54.5416667 101.713333,55.385 104.5,55.385 Z M135.3,65.835 C139.663333,65.835 143.229167,64.8083333 145.9975,62.755 C148.765833,60.7016667 150.15,57.2733333 150.15,52.47 L150.15,52.47 L150.15,27.39 C150.15,27.2066667 150.085833,27.0508333 149.9575,26.9225 C149.829167,26.7941667 149.673333,26.73 149.49,26.73 L149.49,26.73 L143.055,26.73 C142.871667,26.73 142.715833,26.7941667 142.5875,26.9225 C142.459167,27.0508333 142.395,27.2066667 142.395,27.39 L142.395,27.39 L142.395,28.71 C142.395,28.82 142.358333,28.8841667 142.285,28.9025 C142.211667,28.9208333 142.138333,28.8933333 142.065,28.82 C140.561667,27.1333333 138.398333,26.29 135.575,26.29 C133.155,26.29 131.028333,26.9683333 129.195,28.325 C127.361667,29.6816667 126.06,31.4783333 125.29,33.715 C124.63,35.5116667 124.3,37.84 124.3,40.7 C124.3,43.3766667 124.575,45.5583333 125.125,47.245 C125.968333,49.8116667 127.389167,51.6725 129.3875,52.8275 C131.385833,53.9825 133.576667,54.56 135.96,54.56 C138.636667,54.56 140.671667,53.8083333 142.065,52.305 C142.138333,52.2316667 142.211667,52.2041667 142.285,52.2225 C142.358333,52.2408333 142.395,52.305 142.395,52.415 C142.395,54.6883333 141.7625,56.3383333 140.4975,57.365 C139.2325,58.3916667 137.426667,58.905 135.08,58.905 C133.98,58.905 132.77,58.795 131.45,58.575 C130.936667,58.5016667 130.68,58.7033333 130.68,59.18 L130.68,59.18 L130.46,64.845 C130.46,65.285 130.643333,65.5233333 131.01,65.56 C132.586667,65.7433333 134.016667,65.835 135.3,65.835 Z M137.445,48.4 C136.308333,48.4 135.3275,48.0975 134.5025,47.4925 C133.6775,46.8875 133.1,46.09 132.77,45.1 C132.33,44.22 132.11,42.7533333 132.11,40.7 C132.11,38.83 132.366667,37.345 132.88,36.245 C133.246667,35.255 133.815,34.4575 134.585,33.8525 C135.355,33.2475 136.29,32.945 137.39,32.945 C138.526667,32.945 139.48,33.2475 140.25,33.8525 C141.02,34.4575 141.57,35.255 141.9,36.245 C142.083333,36.795 142.211667,37.3816667 142.285,38.005 C142.358333,38.6283333 142.395,39.5083333 142.395,40.645 C142.395,42.5516667 142.248333,44.055 141.955,45.155 C141.661667,46.1083333 141.13,46.8875 140.36,47.4925 C139.59,48.0975 138.618333,48.4 137.445,48.4 Z M168.96,55.44 C171.233333,55.44 173.323333,55.0275 175.23,54.2025 C177.136667,53.3775 178.695,52.2133333 179.905,50.71 C180.051667,50.49 180.125,50.3433333 180.125,50.27 C180.125,50.1233333 180.033333,49.9583333 179.85,49.775 L179.85,49.775 L175.89,45.87 C175.743333,45.7233333 175.615,45.65 175.505,45.65 C175.321667,45.65 175.156667,45.76 175.01,45.98 C173.653333,47.85 171.801667,48.8033333 169.455,48.84 C166.521667,48.84 164.578333,47.8133333 163.625,45.76 C163.331667,45.0266667 163.13,44.2933333 163.02,43.56 C162.946667,43.3766667 163.02,43.285 163.24,43.285 L163.24,43.285 L180.235,43.285 C180.675,43.285 180.913333,43.065 180.95,42.625 C181.023333,40.9016667 180.95,39.3433333 180.73,37.95 C180.253333,34.3933333 178.905833,31.5516667 176.6875,29.425 C174.469167,27.2983333 171.526667,26.235 167.86,26.235 C164.963333,26.235 162.460833,27.005 160.3525,28.545 C158.244167,30.085 156.768333,32.1566667 155.925,34.76 C155.375,36.3 155.1,38.0783333 155.1,40.095 C155.1,43.065 155.485,45.4666667 156.255,47.3 C157.208333,49.8666667 158.775833,51.865 160.9575,53.295 C163.139167,54.725 165.806667,55.44 168.96,55.44 Z M172.755,38.225 L163.24,38.225 C163.056667,38.225 162.965,38.1333333 162.965,37.95 C163.075,37.2533333 163.203333,36.6666667 163.35,36.19 C164.083333,34.0266667 165.605,32.945 167.915,32.945 C169.125,32.945 170.1425,33.2475 170.9675,33.8525 C171.7925,34.4575 172.37,35.31 172.7,36.41 C172.7,36.3733333 172.791667,36.8866667 172.975,37.95 C173.048333,38.1333333 172.975,38.225 172.755,38.225 L172.755,38.225 Z M192.83,55 C193.013333,55 193.169167,54.9358333 193.2975,54.8075 C193.425833,54.6791667 193.49,54.5233333 193.49,54.34 L193.49,54.34 L193.49,39.325 C193.49,37.895 193.948333,36.7491667 194.865,35.8875 C195.781667,35.0258333 196.9,34.54 198.22,34.43 C198.733333,34.3566667 199.136667,34.32 199.43,34.32 C200.163333,34.32 200.805,34.4116667 201.355,34.595 C201.831667,34.7783333 202.088333,34.65 202.125,34.21 L202.125,34.21 L203.28,27.94 C203.353333,27.5366667 203.243333,27.2616667 202.95,27.115 C202.18,26.6016667 201.135,26.345 199.815,26.345 C197.285,26.345 195.268333,27.445 193.765,29.645 C193.728333,29.7183333 193.673333,29.7366667 193.6,29.7 C193.526667,29.6633333 193.49,29.59 193.49,29.48 L193.49,29.48 L193.49,27.39 C193.49,27.2066667 193.425833,27.0508333 193.2975,26.9225 C193.169167,26.7941667 193.013333,26.73 192.83,26.73 L192.83,26.73 L186.395,26.73 C186.211667,26.73 186.055833,26.7941667 185.9275,26.9225 C185.799167,27.0508333 185.735,27.2066667 185.735,27.39 L185.735,27.39 L185.735,54.34 C185.735,54.5233333 185.799167,54.6791667 185.9275,54.8075 C186.055833,54.9358333 186.211667,55 186.395,55 L186.395,55 L192.83,55 Z M218.57,55.44 C221.65,55.44 224.280833,54.6241667 226.4625,52.9925 C228.644167,51.3608333 230.138333,49.115 230.945,46.255 C231.458333,44.5316667 231.715,42.68 231.715,40.7 C231.715,38.6833333 231.421667,36.7583333 230.835,34.925 C229.955,32.2116667 228.451667,30.0941667 226.325,28.5725 C224.198333,27.0508333 221.631667,26.29 218.625,26.29 C215.545,26.29 212.905,27.06 210.705,28.6 C208.505,30.14 206.983333,32.2666667 206.14,34.98 C205.626667,36.7033333 205.37,38.6466667 205.37,40.81 C205.37,42.8266667 205.626667,44.6966667 206.14,46.42 C206.946667,49.2066667 208.45,51.4066667 210.65,53.02 C212.85,54.6333333 215.49,55.44 218.57,55.44 Z M218.57,48.785 C217.323333,48.785 216.269167,48.4183333 215.4075,47.685 C214.545833,46.9516667 213.931667,45.9433333 213.565,44.66 C213.308333,43.7433333 213.18,42.46 213.18,40.81 C213.18,39.0866667 213.326667,37.785 213.62,36.905 C213.986667,35.6583333 214.5825,34.6866667 215.4075,33.99 C216.2325,33.2933333 217.268333,32.945 218.515,32.945 C219.725,32.945 220.751667,33.2933333 221.595,33.99 C222.438333,34.6866667 223.061667,35.6583333 223.465,36.905 C223.758333,37.9683333 223.905,39.27 223.905,40.81 C223.905,42.2033333 223.758333,43.4866667 223.465,44.66 C223.098333,45.9433333 222.493333,46.9516667 221.65,47.685 C220.806667,48.4183333 219.78,48.785 218.57,48.785 Z M249.205,55.44 C252.285,55.44 254.915833,54.6241667 257.0975,52.9925 C259.279167,51.3608333 260.773333,49.115 261.58,46.255 C262.093333,44.5316667 262.35,42.68 262.35,40.7 C262.35,38.6833333 262.056667,36.7583333 261.47,34.925 C260.59,32.2116667 259.086667,30.0941667 256.96,28.5725 C254.833333,27.0508333 252.266667,26.29 249.26,26.29 C246.18,26.29 243.54,27.06 241.34,28.6 C239.14,30.14 237.618333,32.2666667 236.775,34.98 C236.261667,36.7033333 236.005,38.6466667 236.005,40.81 C236.005,42.8266667 236.261667,44.6966667 236.775,46.42 C237.581667,49.2066667 239.085,51.4066667 241.285,53.02 C243.485,54.6333333 246.125,55.44 249.205,55.44 Z M249.205,48.785 C247.958333,48.785 246.904167,48.4183333 246.0425,47.685 C245.180833,46.9516667 244.566667,45.9433333 244.2,44.66 C243.943333,43.7433333 243.815,42.46 243.815,40.81 C243.815,39.0866667 243.961667,37.785 244.255,36.905 C244.621667,35.6583333 245.2175,34.6866667 246.0425,33.99 C246.8675,33.2933333 247.903333,32.945 249.15,32.945 C250.36,32.945 251.386667,33.2933333 252.23,33.99 C253.073333,34.6866667 253.696667,35.6583333 254.1,36.905 C254.393333,37.9683333 254.54,39.27 254.54,40.81 C254.54,42.2033333 254.393333,43.4866667 254.1,44.66 C253.733333,45.9433333 253.128333,46.9516667 252.285,47.685 C251.441667,48.4183333 250.415,48.785 249.205,48.785 Z" id="path-5"></path>
    </defs>
    <g id="Page-1" stroke="none" stroke-width="1" fill="none" fill-rule="evenodd">
        <g id="Logo">
            <g id="Clipped">
                <mask id="mask-2" fill="white">
                    <use xlink:href="#path-1"></use>
                </mask>
                <g id="Rectangle"></g>
                <path d="M21.2674654,16.40625 C21.2674654,7.34531229 28.6221948,0 37.6947491,0 C46.7673034,0 54.1220328,7.34531229 54.1220328,16.40625 L21.2674654,16.40625 Z M70.3051015,46.875 C72.8624762,46.875 75.0242761,44.872557 75.0943829,42.3193411 C75.1671461,39.6703135 73.0386287,37.5 70.4026442,37.5 L62.1890024,37.5 L62.1890024,28.8947777 L69.0278791,22.0646511 C70.8606953,20.2340321 70.8606953,17.2661109 69.0278791,15.4354984 C67.1947764,13.6048859 64.2231934,13.6048859 62.3900777,15.4354984 L54.3778236,23.4375 L20.718174,23.4375 L12.7059199,15.4353489 C10.8728042,13.6047363 7.90122124,13.6047363 6.06811854,15.4353489 C4.2353023,17.2659679 4.2353023,20.2338891 6.06811854,22.0645016 L12.9071514,28.8947777 L12.9071514,37.5 L4.69350962,37.5 C2.05751217,37.5 -0.0709922497,39.6703135 0.00190111307,42.3193411 C0.0720079129,44.872557 2.23380786,46.875 4.79119558,46.875 L12.9071514,46.875 L12.9071514,49.21875 C12.9071514,52.4214831 13.623207,55.4566383 14.9018878,58.1755335 L6.06811854,66.9980049 C4.2353023,68.8286174 4.2353023,71.7965386 6.06811854,73.6271511 C7.901078,75.4576076 10.8728042,75.4577637 12.7059199,73.6271511 L20.7341642,65.6091863 C24.3643005,68.5495637 28.9896044,70.3125 34.0279447,70.3125 L34.0279447,34.5703125 C34.0279447,33.5995609 34.8160082,32.8125 35.7880108,32.8125 L39.308143,32.8125 C40.2801327,32.8125 41.0682091,33.5995609 41.0682091,34.5703125 L41.0682091,70.3125 C46.1065494,70.3125 50.7318533,68.5495637 54.3619897,65.6091863 L62.3902339,73.6271511 C64.2231934,75.4576076 67.1949196,75.4577637 69.0280353,73.6271511 C70.8608385,71.7965386 70.8608385,68.8286174 69.0280353,66.9980049 L60.194266,58.1755335 C61.4729469,55.4566383 62.1890024,52.4214831 62.1890024,49.21875 L62.1890024,46.875 L70.3051015,46.875 Z" id="Shape" fill="#00CCBC" mask="url(#mask-2)"></path>
                <mask id="mask-4" fill="white">
                    <use xlink:href="#path-3"></use>
                </mask>
                <g id="rect-1"></g>
            </g>
            <g id="Group" transform="translate(92.000000, 0.000000)" fill-rule="nonzero">
                <g id="debugeroo">
                    <use fill="#000000" xlink:href="#path-5"></use>
                    <use fill="#00CCBC" xlink:href="#path-5"></use>
                </g>
            </g>
        </g>
    </g>
</svg>